<svg width="2224" height="348" viewBox="0 0 2224 348" fill="none" xmlns="http://www.w3.org/2000/svg">
<path d="M599 84.6237C599 85.0674 602.11 92.3883 605.886 100.375L612.774 115.016H641.432C672.089 115.016 681.641 117.235 691.86 126.774C706.078 140.085 710.078 165.819 700.524 182.679C693.86 194.437 680.087 203.755 666.313 205.53L655.205 207.082L688.529 275.189L721.852 343.517H739.403H756.73L727.849 285.837L698.748 227.935L710.965 216.844C727.628 201.758 734.959 186.229 736.291 164.044C736.958 150.29 736.291 144.744 732.071 133.873C725.407 116.126 709.855 99.7091 691.639 91.5009C678.531 85.7329 675.865 85.2892 638.544 84.4018C616.773 83.7363 599 83.9582 599 84.6237Z" fill="white"/>
<path d="M917.384 91.1256C896.077 98.3048 878.584 109.522 862.212 127.022C838.214 152.373 827 180.193 827 214.967C827 253.555 838.438 280.476 866.024 308.297C894.284 337.013 923.663 347.782 966.277 345.763C992.966 344.192 1011.81 337.91 1032.44 323.103C1085.82 284.964 1103.09 215.416 1073.93 155.738C1060.02 126.797 1023.92 97.6318 992.292 89.5552C971.434 84.1708 935.775 85.0682 917.384 91.1256ZM983.546 118.721C1042.08 133.752 1074.15 203.076 1048.36 258.042C1039.84 275.989 1019.21 296.855 1001.04 306.053C986.013 313.457 983.205 316.172 955.843 316.172C928.256 316.172 929.27 313.457 914.02 306.053C864.23 281.599 843.372 221.024 867.37 171.219C874.323 156.636 896.75 133.528 910.207 126.573C932.186 115.355 959.548 112.439 983.546 118.721Z" fill="white"/>
<path d="M1480.44 216.893V347.782H1494.88H1509.32V233.531V119.281L1552.19 118.837L1594.85 118.172L1595.52 101.977L1596.18 86.0039H1538.2H1480.44V216.893Z" fill="white"/>
<path d="M1896.54 88.2169C1856.33 95.5378 1821.67 121.937 1802.78 159.651C1783.01 198.696 1785.46 248.834 1809.01 285.438C1825.89 311.615 1863.21 338.459 1888.75 342.451L1898.09 344.005V329.141C1898.09 316.939 1897.43 314.056 1894.32 313.168C1877.2 307.623 1857.43 295.421 1846.77 283.884C1829.22 264.806 1821.9 247.059 1820.78 222.212C1819.22 189.378 1827.45 168.081 1850.55 145.231C1889.2 107.074 1952.3 108.183 1989.62 147.893C1996.28 154.771 2003.17 162.757 2005.16 165.863C2008.72 171.187 2008.94 170.743 2008.94 147.45C2009.17 124.378 2008.94 123.268 2003.39 118.166C1978.07 94.6504 1932.31 82.0052 1896.54 88.2169Z" fill="white"/>
<path d="M1669.27 215.781V344.23L1683.71 330.03L1698.15 315.833V215.781V115.728L1683.71 101.53L1669.27 87.332V215.781Z" fill="white"/>
<path d="M28.6568 101.531L43.9856 117.06H140.178H236.371V101.531V86.002H124.85H13.3281L28.6568 101.531Z" fill="white"/>
<path d="M94.1936 251.277L0 345.338L20.8826 346.004C32.4346 346.448 85.7518 346.448 139.291 346.004L236.595 345.561L235.929 331.585L235.262 317.83L154.175 317.164L73.089 316.722L153.065 236.856L233.04 156.992H210.825H188.609L94.1936 251.277Z" fill="white"/>
<path d="M1217.23 87.9966C1200.57 93.0991 1178.57 110.847 1170.8 125.71C1161.91 142.349 1159.47 166.086 1164.8 183.834C1169.46 199.141 1173.46 205.797 1184.79 217.11C1197.01 229.09 1209.9 235.968 1226.11 239.074C1237.22 241.291 1333.64 241.957 1325.64 239.739C1322.31 238.851 1321.64 236.189 1321.64 224.432V210.233H1276.1C1226.33 210.233 1219.89 209.124 1207.45 197.366C1189.46 180.506 1187.9 148.56 1204.56 130.813C1207.23 127.929 1213.45 123.27 1218.34 120.83C1226.56 116.393 1231.22 115.949 1274.54 115.284L1321.64 114.618V100.198V86L1272.32 86.2218C1245 86.2218 1220.34 87.1092 1217.23 87.9966Z" fill="white"/>
<path d="M1362.74 241.735C1395.62 253.494 1400.5 295.866 1370.74 311.617C1361.41 316.499 1358.96 316.72 1311.2 316.72H1261.66V332.471V348L1315.64 347.335C1366.52 346.669 1370.07 346.448 1380.96 341.345C1394.73 335.355 1408.94 320.713 1415.61 306.071C1422.73 290.542 1422.28 266.139 1414.94 251.275L1409.39 240.183L1382.73 239.739C1361.41 239.518 1357.41 239.739 1362.74 241.735Z" fill="white"/>
<path d="M307.461 101.531V117.06H402.542H497.625L512.954 101.531L528.282 86.002H417.872H307.461V101.531Z" fill="white"/>
<path d="M307.461 213.56V230.199H381.438H455.415L462.969 222.435L470.522 214.669L461.858 205.796L453.194 196.922H380.328H307.461V213.56Z" fill="white"/>
<path d="M307.461 330.031V345.559H417.872H528.282L512.954 330.031L497.625 314.502H402.542H307.461V330.031Z" fill="white"/>
<path d="M2110 38.2293C2110 38.3925 2111.14 41.0845 2112.53 44.0213L2115.07 49.4053H2125.6C2136.88 49.4053 2140.39 50.2211 2144.15 53.7289C2149.37 58.6234 2150.85 68.0863 2147.33 74.2861C2144.88 78.6096 2139.82 82.0358 2134.75 82.6884L2130.67 83.2594L2142.92 108.303L2155.17 133.429H2161.63H2168L2157.38 112.219L2146.68 90.9275L2151.17 86.8488C2157.3 81.3016 2159.99 75.5913 2160.48 67.4337C2160.73 62.3759 2160.48 60.3365 2158.93 56.3393C2156.48 49.8132 2150.76 43.7765 2144.06 40.7582C2139.24 38.6372 2138.26 38.4741 2124.54 38.1478C2116.54 37.903 2110 37.9846 2110 38.2293Z" fill="white"/>
<circle cx="2138.5" cy="85.5" r="80.5" stroke="white" stroke-width="10"/>
</svg>
